<svg xmlns="http://www.w3.org/2000/svg" width="859.893" height="859.893" xmlns:v="https://vecta.io/nano"><circle fill="#fff" cx="430.197" cy="429.946" r="430.873"/><path fill="#f37022" d="M430.196 10.877c-181.189 0-335.438 115.321-393.369 276.567h786.738C765.634 126.199 611.386 10.877 430.196 10.877z"/><path fill="#0f823f" d="M430.196 846.623c181.377 0 335.757-115.56 393.548-277.066H36.648C94.439 731.063 248.82 846.623 430.196 846.623z"/><path fill="#fff" d="M298.795 783.77l26.692-74.467-27.955-23.124-21.275-52.842-15.099-89.905v-55.586l2.744-44.608 13.726-33.629s-4.118-56.962-3.432-76.178l.687-19.215 16.47-118.727 12.354-23.333 17.845-15.096 16.468-.688 6.864-2.746s2.058-14.412 8.921-23.332l6.863-8.924 17.842-10.981 24.708 7.342 28.876-37.61 24.505-7.035 20.139 16.256 5.58 21.839 27.419-5.826 17.47 8.25 9.705 21.596 18.44 202.115 8.009 67.211 27.657-52.411 27.662-23.777 32.029-1.457 15.044 22.809-28.148 214.976-16.015 48.527-62.692 78.627-23.2 56.762.222 29.912-234.907 8.501-2.219-3.228z"/><path d="M298.795 783.77c-1.258-3.619-3.196-17.12-4.305-30.003-4.984-57.997-5.314-60.387-9.293-67.16-5.945-10.119-14.947-38.786-20.499-65.281-14.992-71.547-15.311-149.037-.811-195.877 2.891-9.336 4.357-19.952 4.801-34.79 1.309-43.765 4.71-103.287 6.595-115.495 1.074-6.939 3.207-24.555 4.74-39.142 5.497-52.309 20.731-77.397 51.839-85.369 9.093-2.332 10.048-3.17 14.135-12.41 2.41-5.45 7.618-13.05 11.572-16.892 10.933-10.621 18.467-13.448 34.45-12.928l13.789.446 3.886-7.596c12.374-24.186 32.587-35.629 53.146-30.096 8.82 2.376 21.401 14.536 25.619 24.766 2.488 6.032 2.732 6.13 12.763 5.095 13.463-1.39 22.601 1.853 30.804 10.93 12.453 13.782 14.535 23.279 18.904 86.177l14.047 181.106c2.472 2.47 9.217-5.653 15.323-18.442 7.487-15.697 21.48-29.929 36.073-36.694 21.014-9.746 44.219-5.556 51.942 9.375 3.92 7.58 3.625 26.196-.866 54.78-2.054 13.061-5.603 43.398-7.891 67.418-8.134 85.358-16.358 123.214-35.205 162.079-9.19 18.948-17.922 30.685-44.56 59.897-11.293 12.39-23.084 27.125-26.196 32.754-5.381 9.717-5.697 11.591-6.293 37.403-.71 30.828-1.283 32.029-15.215 32.029-10.64 0-13.212-4.155-11.425-18.469l1.28-10.233-17.098-5.269c-19.027-5.859-22.267-7.752-16.443-9.602 2.177-.691 6.795-4.491 10.264-8.44 5.671-6.457 5.931-7.257 2.587-7.901-2.045-.392-9.493.374-16.552 1.706-13.672 2.581-24.277.791-28.995-4.89-4.852-5.847-.168-7.122 21.129-5.737l20.701 1.338 18.671-9.711c59.754-31.068 98.597-79.668 114.006-142.636 5.666-23.141 22.738-161.646 20.701-167.944-.593-1.837-3.703-4.83-6.91-6.648-7.665-4.351-7.357-6.649 1.113-8.24 5.514-1.031 7.51-2.663 9.703-7.905 3.897-9.332.421-24.929-7.276-32.621-4.93-4.93-6.752-5.551-13.903-4.743-25.791 2.906-43.883 24.507-54.002 64.486l-4.336 17.125 3.462 27.787c1.908 15.288 2.898 28.708 2.205 29.823-2.223 3.599-6.008 2.18-10.532-3.94-4.32-5.838-4.503-5.893-8.388-2.424-2.179 1.95-9.895 15.824-17.134 30.834-7.244 15.004-14.536 28.419-16.206 29.801-2.347 1.95-4.442 2.033-9.222.367-7.696-2.685-11.542.224-15.289 11.577-1.422 4.311-3.303 8.28-4.184 8.823-2.1 1.295-1.969-17.617.186-26.902 1.915-8.249.916-8.749-8.188-4.122-26.767 13.603-73.233 66.259-84.777 96.074-8.428 21.763-10.106 24.999-12.978 24.999-3.579 0-3.26-4.001 1.222-15.379 2.489-6.309 3.124-10.132 1.818-10.937-2.442-1.512-8.998 4.126-10.574 9.101-1.205 3.794-6.713 5.112-6.713 1.61 0-8.253 20.111-34.872 32.079-42.464 4.661-2.955 12.139-10.098 16.618-15.871s17.858-20.107 29.727-31.852c22.639-22.401 45.233-37.506 62.888-42.041 9.879-2.534 14.607-8.085 24.503-28.752 6.31-13.192 6.939-16.008 6.881-31.059-.138-38.317-7.273-62.641-20.172-68.762-8.436-4.004-24.944-3.974-51.038.091-19.1 2.976-20.723 2.976-22.899 0-1.754-2.399-5.45-3.2-14.745-3.192-20.14.015-25.368 2.412-44.167 20.228-9.357 8.864-18.936 17.15-21.29 18.408-4.148 2.22-4.243 2.059-3.067-5.302 1.684-10.53-1.527-15.876-9.544-15.876-6.38 0-14.872 4.623-38.491 20.96-12.592 8.709-19.875 9.976-23.56 4.09-4.115-6.579-.015-12.631 12.681-18.72 20.246-9.713 19.012-5.284 19.5-69.944.232-31.009-.095-56.906-.728-57.546s-4.895.15-9.465 1.763c-10.396 3.667-17.529 3.771-17.529.256 0-4.39 4.228-6.474 16.015-7.901l11.162-1.349v-36.311c0-39.859-1.24-44.939-10.973-44.939-17.54 0-32.299 30.538-35.653 73.762-.953 12.278-3.075 28.001-4.721 34.94-3.885 16.41-5.204 118.676-1.697 131.774 2.084 7.782 1.886 9.115-2.319 15.527-8.483 12.947-12.832 33.382-13.984 65.735-1.197 33.612-2.175 31.96 15.386 25.916 21.599-7.431 16.669 4.493-5.593 13.532l-10.883 4.416 1.206 21.5c3.447 61.439 21.949 117.698 47.788 145.321l11.557 12.354-5.044 12.467c-2.775 6.856-7.636 23.383-10.803 36.728-7.847 33.053-8.003 33.424-10.845 25.273h0zm70.191-427.859c6.541-4.938 24.025-10.862 32.065-10.862h4.799l-1.334-52.893-.785-66.482c1.243-30.755-.863-91.257-3.349-96.089-4.268-8.297-10.425-12.525-18.246-12.525-14.817 0-27.535 14.418-31.179 35.349-1.277 7.322-2.785 44.233-3.431 83.929-1.883 115.881-1.931 113.056 1.962 118.994 4.352 6.634 11.206 6.84 19.497.581v-.001zm-1.868-52.08c-1.651-2.673 3.108-5.304 9.663-5.338 3.486-.022 5.21.842 4.708 2.347-1.021 3.065-12.81 5.517-14.371 2.991zm.604-91.606c-1.487-3.876 3.282-7.268 10.714-7.614 8.845-.409 9.809 5.287 1.39 8.218-8.209 2.863-10.822 2.733-12.103-.604h0zm93.819 130.886c13.629-9.706 19.199-36.095 15.761-74.688-1.191-13.379-2.703-56.86-3.355-96.624-1.183-71.906-1.216-72.339-5.819-79.524-5.881-9.181-14.569-13.844-22.533-12.094-8.542 1.876-21.679 14.829-27.023 26.643l-4.585 10.149-.257 100.935c-.273 107.371-.247 107.71 8.939 110.628 3.16 1.003 3.934 2.916 3.934 9.721 0 7.733.468 8.557 5.34 9.383 11.001 1.869 23.24-.006 29.598-4.53h0zm-23.293-66.774c0-3.129 4.133-5.061 10.832-5.061 5.281 0 6.45 4.733 1.625 6.588-5.531 2.123-12.458 1.275-12.458-1.527h0zm-6.735-76.786c-3.138-5.08 7.79-10.731 16.89-8.731 4.342.953 5.462 2.166 5.002 5.417-.511 3.58-2.053 4.272-10.616 4.769-5.547.321-10.579-.328-11.276-1.455h0zm103.974 142.274c12.641-5.058 13.741-9.674 11.336-47.608-3.193-50.401-11.108-131.356-14.343-146.739-5.159-24.525-13.011-35.371-25.609-35.371-7.187 0-16.602 7.07-21.625 16.244-2.935 5.364-3.273 12-2.879 56.547.245 27.757 1.448 63.132 2.668 78.612 1.591 20.169 1.639 32.189.171 42.408-1.127 7.841-1.595 15.447-1.038 16.896s4.003 4.399 7.663 6.555 7.451 6.038 8.436 8.623 2.935 5.156 4.337 5.716c5.575 2.232 23.298 1.149 30.881-1.883l.001-.002zm-30.526-73.42c-.755-1.966-.166-4.05 1.427-5.06 4.314-2.732 11.463-2.045 12.714 1.22 1.469 3.827.749 4.462-6.723 5.956-4.753.952-6.424.479-7.419-2.116zm-4.598-78.299c0-3.289 5.522-6.489 10.082-5.843 7.529 1.068 5.418 6.38-2.802 7.062-4.005.33-7.279-.218-7.279-1.219zM335.036 771.6c-.18-1.334-.409-7.67-.507-14.074s-.918-15.783-1.825-20.839l-1.651-9.193 9.437 2.862c10.721 3.254 21.292 3.769 22.932 1.115.609-.989-1.643-3.751-5.001-6.144-5.613-3.996-5.834-4.551-2.728-6.821 3.411-2.493 37.67-11.055 52.95-13.229 6.229-.889 8.252-.532 8.252 1.457 0 3.597-5.556 8.336-13.815 11.784-9.179 3.837-13.191 8.55-9.355 10.99 1.534.975 3.852 1.385 5.152.906s2.893-.014 3.538 1.036c.646 1.038-1.867 3.163-5.583 4.715s-8.801 5.304-11.3 8.331c-2.517 3.05-10.387 7.932-17.634 10.939-7.903 3.274-15.377 8.036-18.866 12.009-5.741 6.536-13.359 8.798-13.995 4.156h0zm-9.373-159.797c0-2.665 22.554-28.904 39.436-45.877 20.587-20.695 45.013-40.382 77.301-62.311 25.346-17.214 49.792-31.515 51.298-30.005.927.926-27.95 24.317-62.694 50.777-10.923 8.318-31.382 25.155-45.463 37.415-41.161 35.836-59.878 51.47-59.878 50.001h0zm15.527-119.995c0-1.329 28.606-19.229 51.246-32.061 33.247-18.843 87.222-42.879 90.016-40.086 2.964 2.967-76.7 46.171-112.145 60.817l-21.836 9.079c-4.005 1.686-7.28 2.698-7.28 2.254v-.003zm-36.687-172.308c-3.805-1.405-4.127-2.14-2.037-4.66 3.142-3.782 12.291-2.858 13.083 1.322.735 3.874-4.953 5.592-11.046 3.338z"/></svg>